<?xml version="1.0" encoding="UTF-8" standalone="no"?>
<!-- Generator: Adobe Illustrator 28.1.0, SVG Export Plug-In . SVG Version: 6.00 Build 0)  -->

<svg
   version="1.1"
   id="Слой_1"
   x="0px"
   y="0px"
   viewBox="0 0 753.50922 534.65601"
   xml:space="preserve"
   sodipodi:docname="marginaleffects_icon.svg"
   width="753.50922"
   height="534.65601"
   inkscape:version="1.3.2 (091e20e, 2023-11-25)"
   xmlns:inkscape="http://www.inkscape.org/namespaces/inkscape"
   xmlns:sodipodi="http://sodipodi.sourceforge.net/DTD/sodipodi-0.dtd"
   xmlns="http://www.w3.org/2000/svg"
   xmlns:svg="http://www.w3.org/2000/svg"><defs
   id="defs15" /><sodipodi:namedview
   id="namedview15"
   pagecolor="#ffffff"
   bordercolor="#000000"
   borderopacity="0.25"
   inkscape:showpageshadow="2"
   inkscape:pageopacity="0.0"
   inkscape:pagecheckerboard="0"
   inkscape:deskcolor="#d1d1d1"
   inkscape:zoom="0.20678444"
   inkscape:cx="319.17296"
   inkscape:cy="669.77961"
   inkscape:window-width="760"
   inkscape:window-height="916"
   inkscape:window-x="756"
   inkscape:window-y="38"
   inkscape:window-maximized="0"
   inkscape:current-layer="g4" />
<style
   type="text/css"
   id="style1">
	.st0{stroke:#FFFFFF;stroke-width:3;stroke-miterlimit:10;}
	.st1{stroke:#FFFFFF;stroke-width:3;stroke-linecap:square;stroke-miterlimit:10;}
</style>
<g
   id="g15"
   transform="translate(-123.4,-112.144)">
	<g
   id="g4">
		
		<path
   d="m 678,572.2 c -0.7,4.7 -1.4,8.9 -1.9,12.3 -5.9,36.5 -27.5,58.3 -58,58.3 -21.5,0 -34.5,-10.5 -44.4,-20.7 C 553.6,601.3 519.8,541.8 484,478.8 439,399.7 392.5,317.9 363.8,294.9 348.9,282.6 330,275.8 310.7,275.8 c -22.2,0 -43.1,8.6 -58.9,24.3 -19.5,17.2 -40.2,61.2 -62.2,107.9 -22.1,46.9 -44.9,95.3 -66.2,114.5 l 2.7,3 C 148,505.8 171,457 193.3,409.7 c 20.9,-44.3 42.4,-90 61.2,-106.6 v 0 l 0.1,-0.1 v 0 c 15,-14.9 34.9,-23.2 56.1,-23.2 18.4,0 36.4,6.4 50.6,18.2 28.2,22.6 74.5,104 119.3,182.8 36,63.2 69.9,123 90.3,144.1 10.5,10.8 24.3,21.9 47.3,21.9 16.4,0 30.8,-6 41.8,-17.5 10.3,-10.8 17.3,-26.1 20.2,-44.2 0.6,-3.6 1.3,-8 2,-13 z"
   id="path1" />
		<g
   id="g3">
			<circle
   cx="274.10001"
   cy="283.79999"
   r="21"
   id="circle1" />
			<g
   id="g2">
				<rect
   x="418.10001"
   y="191.39999"
   transform="matrix(0.8543,-0.5198,0.5198,0.8543,-39.1772,247.0779)"
   width="6"
   height="4"
   id="rect1" />
				<path
   d="m 140.7,366.3 -2.1,-3.4 10,-6.1 2.1,3.4 z m 19.9,-12.1 -2.1,-3.4 10,-6.1 2.1,3.4 z m 20,-12.1 -2.1,-3.4 10,-6.1 2.1,3.4 z m 19.9,-12.2 -2.1,-3.4 10,-6.1 2.1,3.4 z m 19.9,-12.1 -2.1,-3.4 10,-6.1 2.1,3.4 z m 19.9,-12.1 -2.1,-3.4 10,-6.1 2.1,3.4 z m 19.9,-12.1 -2.1,-3.4 10,-6.1 2.1,3.4 z m 20,-12.1 -2.1,-3.4 10,-6.1 2.1,3.4 z m 19.9,-12.1 -2.1,-3.4 10,-6.1 2.1,3.4 z m 19.9,-12.2 -2.1,-3.4 10,-6.1 2.1,3.4 z m 19.9,-12.1 -2.1,-3.4 10,-6.1 2.1,3.4 z m 20,-12.1 -2.1,-3.4 10,-6.1 2.1,3.4 z m 19.9,-12.1 -2.1,-3.4 10,-6.1 2.1,3.4 z m 19.9,-12.1 -2.1,-3.4 10,-6.1 2.1,3.4 z"
   id="path2" />
				<rect
   x="124.2"
   y="370.20001"
   transform="matrix(0.8543,-0.5198,0.5198,0.8543,-174.9271,120.3451)"
   width="6"
   height="4"
   id="rect2" />
			</g>
		</g>
	</g>
	<g
   id="g14">
		<g
   id="g6">
			<path
   d="m 732.6,272.8 c -7.3,0 -12.8,5.4 -14,13.7 l -1.4,10.3 h -77.7 l -1.4,-10.3 c -1.2,-8.3 -6.7,-13.7 -14,-13.7 -7.7,0 -14,6.3 -14,14 0,7.7 6.3,14 14,14 H 636 l 22.8,165 h 4 L 640,300.8 h 76.6 l -22.8,165 h 4 l 22.8,-165 h 11.9 c 7.7,0 14,-6.3 14,-14 0,-7.7 -6.2,-14 -13.9,-14 z m -108.5,24 c -5.5,0 -10,-4.5 -10,-10 0,-5.5 4.5,-10 10,-10 5.3,0 9.1,3.9 10,10.3 l 1.3,9.7 z m 108.5,0 h -11.4 l 1.3,-9.7 c 0.9,-6.3 4.7,-10.3 10,-10.3 5.5,0 10,4.5 10,10 0,5.5 -4.4,10 -9.9,10 z"
   id="path4" />
			<g
   id="g5">
				<path
   d="m 678.3,174.8 c -78.4,0 -142.2,63.8 -142.2,142.2 0,27.5 7.9,54.2 22.8,77.2 14.4,22.2 34.6,40 58.5,51.3 v 21.8 0 43.8 c 0,33.5 27.2,60.8 60.7,61 l 0.2,-1.2 c 5.2,-34.1 13.9,-93.3 15.6,-104.9 v -0.3 H 621.4 V 443 l -1.7,-0.8 c -23.4,-11 -43.3,-28.3 -57.4,-50.1 -14.5,-22.4 -22.1,-48.3 -22.1,-75.1 0,-76.2 62,-138.2 138.2,-138.2 76.2,0 138.3,62 138.3,138.2 0,26.8 -7.7,52.7 -22.1,75.1 -14.1,21.8 -34,39.1 -57.4,50.1 l -1.7,0.8 v 22.7 H 698 l -0.1,0.9 c -1.7,11.5 -10.2,70 -15.5,104.3 v 0 0 c 0,0.3 -0.1,0.6 -0.1,0.9 v 0 0.2 c 31.9,-2 57.2,-28.5 57.2,-60.9 v -43.8 0 -21.8 c 23.9,-11.3 44.1,-29.1 58.5,-51.3 14.9,-23 22.8,-49.7 22.8,-77.2 -0.2,-78.4 -64,-142.2 -142.5,-142.2 z"
   id="path5" />
			</g>
		</g>
		<g
   id="g13">
			<g
   id="g12">
				<g
   id="g11">
					<path
   class="st0"
   d="M 678.3,303.8"
   id="path6" />
					<path
   class="st1"
   d="M 678.3,303.8"
   id="path7" />
					<rect
   x="552.09998"
   y="155.5"
   transform="matrix(0.7002,-0.7139,0.7139,0.7002,36.3826,449.6755)"
   width="3"
   height="52"
   id="rect7" />
					<rect
   x="634.5"
   y="111.7"
   transform="matrix(0.969,-0.2472,0.2472,0.969,-14.3499,161.4967)"
   width="3"
   height="52.400002"
   id="rect8" />
					<rect
   x="776.90002"
   y="180"
   transform="matrix(0.7137,-0.7004,0.7004,0.7137,102.7145,614.363)"
   width="52"
   height="3"
   id="rect9" />
					<rect
   x="503.79999"
   y="227.8"
   transform="matrix(0.277,-0.9609,0.9609,0.277,121.396,669.0801)"
   width="3"
   height="52.099998"
   id="rect10" />
					<rect
   x="694.70001"
   y="136.3"
   transform="matrix(0.2471,-0.969,0.969,0.2471,409.1353,802.0748)"
   width="52"
   height="3"
   id="rect11" />
				</g>
				<rect
   x="825.40002"
   y="252.39999"
   transform="matrix(0.9608,-0.2773,0.2773,0.9608,-37.0152,246.0621)"
   width="52.099998"
   height="3"
   id="rect12" />
			</g>
		</g>
	</g>
</g>
</svg>
