<?xml version="1.0" encoding="UTF-8" standalone="no"?>
<!-- Creator: CorelDRAW -->

<svg
   xml:space="preserve"
   width="243.08319mm"
   height="77.537186mm"
   version="1.1"
   style="clip-rule:evenodd;fill-rule:evenodd;image-rendering:optimizeQuality;shape-rendering:geometricPrecision;text-rendering:geometricPrecision"
   viewBox="0 0 24308.319 7753.7186"
   id="svg3"
   sodipodi:docname="marginaleffects_gotham.svg"
   inkscape:version="1.3.2 (091e20ef0f, 2023-11-25, custom)"
   xmlns:inkscape="http://www.inkscape.org/namespaces/inkscape"
   xmlns:sodipodi="http://sodipodi.sourceforge.net/DTD/sodipodi-0.dtd"
   xmlns="http://www.w3.org/2000/svg"
   xmlns:svg="http://www.w3.org/2000/svg"><sodipodi:namedview
   id="namedview3"
   pagecolor="#ffffff"
   bordercolor="#cccccc"
   borderopacity="1"
   inkscape:showpageshadow="0"
   inkscape:pageopacity="1"
   inkscape:pagecheckerboard="0"
   inkscape:deskcolor="#d1d1d1"
   inkscape:document-units="mm"
   inkscape:zoom="0.67753885"
   inkscape:cx="797.00227"
   inkscape:cy="126.92999"
   inkscape:window-width="1920"
   inkscape:window-height="1200"
   inkscape:window-x="0"
   inkscape:window-y="0"
   inkscape:window-maximized="1"
   inkscape:current-layer="Layer_x0020_1"
   showgrid="false" />
 <defs
   id="defs1"><style
     type="text/css"
     id="style1">
   <![CDATA[
    .str0 {stroke:black;stroke-width:20;stroke-miterlimit:22.9256}
    .fil1 {fill:none}
    .fil0 {fill:black}
    .fil2 {fill:black;fill-rule:nonzero}
   ]]>
  </style></defs>
 <g
   id="Layer_x0020_1"
   inkscape:label="Layer 1"
   inkscape:groupmode="layer"
   transform="translate(3004.8396,-11806.603)">
  <metadata
   id="CorelCorpID_0Corel-Layer" />
  <path
   class="fil0"
   d="m 12526.107,12610.396 c -3.563,-0.317 -7.114,-0.683 -10.677,-0.976 -12.588,-1.065 -25.201,-1.937 -37.814,-2.716 -6.071,-0.38 -12.13,-0.746 -18.201,-1.079 -11.047,-0.587 -22.107,-1.064 -33.18,-1.429 -7.954,-0.262 -15.922,-0.468 -23.889,-0.65 -9.61,-0.222 -19.244,-0.342 -28.88,-0.437 -10.767,0 -21.534,0.01 -32.315,0.142 -59.754,1.065 -119.829,4.962 -180.297,11.566 -1061.587,116.055 -1514.647,1040.569 -1981.809,1993.89 -548.5425,1119.382 -1116.0989,2277.563 -2727.1436,2277.563 h -12.7274 c -1.8328,0 -3.6782,0 -5.5237,0 -2048.0561,-3.366 -2830.1473,-1459.31 -3482.8128,-2674.308 -37.9406,-70.629 -75.423,-140.401 -112.6764,-209.004 l 134.1095,-23.162 c 36.9224,68.008 74.0612,137.129 111.62,207.052 638.9198,1189.431 1404.5417,2614.378 3357.1289,2620.228 9.8001,-0.151 19.3967,-0.531 29.2477,-0.635 37.5843,-0.397 74.9904,-1.023 111.4291,-2.77 1.5783,-0.07 3.0802,-0.246 4.6583,-0.326 1406.5901,-71.159 1941.3608,-1161.974 2458.6444,-2217.57 478.808,-977.101 943.17,-1924.675 2081.262,-2049.088 80.654,-8.82 160.557,-13.327 239.799,-13.327 h 12.728 c 1.462,0 2.926,0.05 4.39,0.05 0.112,0 0.229,0 0.343,0 595.444,1.356 1153.022,257.931 1702.238,859.528 610.856,669.107 1216.506,1771.424 1860.262,3435.054 8.235,21.234 -12.689,42.618 -46.735,47.753 -5.014,0.754 -10.03,1.12 -14.968,1.12 h -12.727 c -28.612,0 -54.576,-12.161 -61.601,-30.266 -640.867,-1656.147 -1242.254,-2751.803 -1847.331,-3414.592 -472.648,-517.729 -944.188,-767.104 -1436.552,-811.618 z m -8764.1454,1253.495 c -381.8373,-689.061 -753.7598,-1226.238 -1347.497,-1226.238 -35.1406,0 -63.6375,-17.772 -63.6375,-39.688 0,-21.915 28.4969,-39.688 63.6375,-39.688 h 12.7274 c 676.4913,0 1070.0634,562.981 1468.8537,1282.468 z"
   id="path1"
   style="stroke-width:1.00511" />
  <ellipse
   class="fil1 str0"
   cx="11997.543"
   cy="12574.371"
   id="circle1"
   rx="589.25708"
   ry="526.01379" />
  
  
  
  
  
  
  
  
  
  
  
  
  
  
  
  <path
   class="fil0"
   d="m 2416.0736,14209.144 h 12.7275 c 5.5873,0 11.2765,-0.46 16.9275,-1.436 l 9263.0124,-1599.677 c 126.257,-41.355 262.212,-70.899 409.329,-86.981 40.283,-4.405 81.177,-7.778 122.617,-10.088 13.898,-0.779 27.682,-1.422 41.377,-1.937 l 3617.38,-624.704 c 33.767,-5.818 53.583,-27.623 44.253,-48.682 -7.763,-17.533 -33.307,-29.036 -61.13,-29.036 h -12.727 c -5.587,0 -11.277,0.461 -16.927,1.438 L 2399.1969,14131.427 c -33.766,5.819 -53.5827,27.623 -44.2535,48.682 7.7638,17.534 33.3078,29.035 61.1302,29.035 z"
   id="path3"
   style="stroke-width:1.00511" />
 <text
   xml:space="preserve"
   style="font-style:normal;font-variant:normal;font-weight:normal;font-stretch:normal;font-size:987.778px;line-height:0;font-family:'Gotham HTF';-inkscape-font-specification:'Gotham HTF, Normal';font-variant-ligatures:normal;font-variant-caps:normal;font-variant-numeric:normal;font-variant-east-asian:normal;letter-spacing:166.952px;fill:none;stroke:#000000;stroke-width:0;stroke-dasharray:none"
   x="1991.8896"
   y="18059.453"
   id="text3"><tspan
     sodipodi:role="line"
     id="tspan3"
     style="font-style:normal;font-variant:normal;font-weight:normal;font-stretch:normal;font-size:846.667px;font-family:'Gotham HTF';-inkscape-font-specification:'Gotham HTF, Normal';font-variant-ligatures:normal;font-variant-caps:normal;font-variant-numeric:normal;font-variant-east-asian:normal;fill:#000000;fill-opacity:1;stroke:none;stroke-width:0;stroke-dasharray:none;stroke-opacity:1"
     x="1991.8896"
     y="18059.453">The Marginal Effects Zoo</tspan></text><text
   xml:space="preserve"
   style="font-style:normal;font-variant:normal;font-weight:normal;font-stretch:normal;font-size:987.778px;line-height:0;font-family:'Gotham HTF';-inkscape-font-specification:'Gotham HTF, Normal';font-variant-ligatures:normal;font-variant-caps:normal;font-variant-numeric:normal;font-variant-east-asian:normal;letter-spacing:166.952px;clip-rule:evenodd;fill:none;fill-rule:evenodd;stroke:#000000;stroke-width:0;stroke-dasharray:none;image-rendering:optimizeQuality;shape-rendering:geometricPrecision;text-rendering:geometricPrecision"
   x="-3067.7046"
   y="19456.816"
   id="text3-6"><tspan
     sodipodi:role="line"
     id="tspan3-7"
     style="font-style:normal;font-variant:normal;font-weight:normal;font-stretch:normal;font-size:635px;font-family:'Gotham HTF';-inkscape-font-specification:'Gotham HTF, Normal';font-variant-ligatures:normal;font-variant-caps:normal;font-variant-numeric:normal;font-variant-east-asian:normal;fill:#000000;fill-opacity:1;stroke:none;stroke-width:0;stroke-dasharray:none;stroke-opacity:1"
     x="-3067.7046"
     y="19456.816">How to interpret statistical models in R and Python</tspan></text></g>
</svg>
