<?xml version="1.0" encoding="utf-8"?>
<!-- Generator: Adobe Illustrator 19.0.0, SVG Export Plug-In . SVG Version: 6.00 Build 0)  -->
<svg version="1.0" id="Layer_1" xmlns="http://www.w3.org/2000/svg" xmlns:xlink="http://www.w3.org/1999/xlink" x="0px" y="0px"
	 width="548.3px" height="548.3px" viewBox="0 0 548.3 548.3" style="enable-background:new 0 0 548.3 548.3;" xml:space="preserve"
	>
<style type="text/css">
	.st0{fill:#86D4E3;}
	.st1{fill:#9C964A;}
	.st2{opacity:0.67;}
</style>
<g>
	<g>
		<polygon class="st0" points="53.1,402 53.1,149.4 271.9,23.1 490.6,149.4 490.6,402 271.9,528.3 		"/>
		<g>
			<path d="M271.9,29.9l212.9,122.9v245.9L271.9,521.6L58.9,398.7V152.8L271.9,29.9 M271.9,16.4l-5.8,3.4L53.1,142.7l-5.8,3.4v6.7
				v245.9v6.7l5.8,3.4L266,531.7l5.8,3.4l5.8-3.4l212.9-122.9l5.8-3.4v-6.7V152.8v-6.7l-5.8-3.4L277.7,19.8L271.9,16.4L271.9,16.4z"
				/>
		</g>
	</g>
	<g>
		<path d="M89.3,199v-28.2h4.3v4c0.9-1.4,2.1-2.5,3.5-3.3c1.5-0.8,3.1-1.3,5-1.3c2.1,0,3.8,0.4,5.1,1.3c1.3,0.9,2.3,2.1,2.8,3.6
			c2.2-3.3,5.1-4.9,8.7-4.9c2.8,0,5,0.8,6.5,2.3c1.5,1.6,2.3,3.9,2.3,7.2V199h-4.8v-17.8c0-1.9-0.2-3.3-0.5-4.1
			c-0.3-0.8-0.9-1.5-1.7-2c-0.8-0.5-1.8-0.8-2.9-0.8c-2,0-3.6,0.7-4.9,2c-1.3,1.3-2,3.4-2,6.3V199h-4.8v-18.4c0-2.1-0.4-3.7-1.2-4.8
			c-0.8-1.1-2.1-1.6-3.8-1.6c-1.3,0-2.6,0.4-3.7,1.1c-1.1,0.7-2,1.7-2.5,3.1c-0.5,1.4-0.8,3.3-0.8,5.9V199H89.3z"/>
		<path d="M153.1,195.5c-1.8,1.5-3.5,2.6-5.1,3.2c-1.6,0.6-3.4,0.9-5.3,0.9c-3.1,0-5.5-0.8-7.2-2.3c-1.7-1.5-2.5-3.5-2.5-5.8
			c0-1.4,0.3-2.6,0.9-3.8c0.6-1.1,1.5-2.1,2.5-2.8c1-0.7,2.2-1.2,3.4-1.6c0.9-0.2,2.4-0.5,4.3-0.7c3.9-0.5,6.7-1,8.5-1.6
			c0-0.7,0-1.1,0-1.3c0-1.9-0.5-3.3-1.4-4.1c-1.2-1.1-3-1.6-5.5-1.6c-2.3,0-3.9,0.4-5,1.2s-1.9,2.2-2.4,4.2l-4.7-0.6
			c0.4-2,1.1-3.6,2.1-4.9c1-1.2,2.4-2.2,4.2-2.8c1.8-0.7,4-1,6.4-1c2.4,0,4.4,0.3,5.9,0.9c1.5,0.6,2.6,1.3,3.3,2.1
			c0.7,0.9,1.2,1.9,1.5,3.3c0.2,0.8,0.2,2.3,0.2,4.4v6.4c0,4.4,0.1,7.3,0.3,8.4c0.2,1.2,0.6,2.3,1.2,3.4h-5
			C153.6,198,153.2,196.8,153.1,195.5z M152.7,184.8c-1.7,0.7-4.3,1.3-7.8,1.8c-2,0.3-3.4,0.6-4.2,1c-0.8,0.4-1.4,0.9-1.9,1.6
			c-0.4,0.7-0.7,1.4-0.7,2.3c0,1.3,0.5,2.3,1.4,3.2c1,0.9,2.4,1.3,4.2,1.3c1.8,0,3.5-0.4,4.9-1.2c1.4-0.8,2.5-1.9,3.2-3.3
			c0.5-1.1,0.8-2.7,0.8-4.8V184.8z"/>
		<path d="M164.9,199v-28.2h4.3v4.3c1.1-2,2.1-3.3,3-4c0.9-0.6,2-1,3.1-1c1.6,0,3.3,0.5,4.9,1.5l-1.6,4.4c-1.2-0.7-2.3-1-3.5-1
			c-1,0-2,0.3-2.8,0.9c-0.8,0.6-1.4,1.5-1.8,2.6c-0.5,1.7-0.8,3.6-0.8,5.6V199H164.9z"/>
		<path d="M182.2,201.3l4.7,0.7c0.2,1.4,0.7,2.5,1.6,3.1c1.2,0.9,2.8,1.3,4.9,1.3c2.2,0,3.9-0.4,5.1-1.3c1.2-0.9,2-2.1,2.4-3.7
			c0.2-1,0.4-3,0.3-6.1c-2.1,2.5-4.7,3.7-7.8,3.7c-3.9,0-6.9-1.4-9-4.2c-2.1-2.8-3.2-6.2-3.2-10.1c0-2.7,0.5-5.2,1.5-7.5
			c1-2.3,2.4-4,4.2-5.3c1.9-1.2,4-1.9,6.5-1.9c3.3,0,6.1,1.3,8.2,4v-3.4h4.4v24.4c0,4.4-0.4,7.5-1.3,9.3c-0.9,1.8-2.3,3.3-4.3,4.3
			c-1.9,1.1-4.3,1.6-7.2,1.6c-3.4,0-6.1-0.8-8.2-2.3C183.1,206.7,182.1,204.4,182.2,201.3z M186.2,184.4c0,3.7,0.7,6.4,2.2,8.1
			c1.5,1.7,3.3,2.6,5.5,2.6c2.2,0,4-0.8,5.5-2.5c1.5-1.7,2.2-4.3,2.2-8c0-3.5-0.8-6.1-2.3-7.8c-1.5-1.8-3.4-2.6-5.5-2.6
			c-2.1,0-3.9,0.9-5.4,2.6C186.9,178.4,186.2,180.9,186.2,184.4z"/>
		<path d="M213.4,165.5V160h4.8v5.5H213.4z M213.4,199v-28.2h4.8V199H213.4z"/>
		<path d="M225.5,199v-28.2h4.3v4c2.1-3.1,5.1-4.7,9-4.7c1.7,0,3.3,0.3,4.7,0.9c1.4,0.6,2.5,1.4,3.2,2.4c0.7,1,1.2,2.2,1.5,3.5
			c0.2,0.9,0.3,2.4,0.3,4.7V199h-4.8v-17.2c0-2-0.2-3.4-0.6-4.4c-0.4-1-1-1.7-2-2.3s-2.1-0.9-3.3-0.9c-2,0-3.8,0.6-5.3,1.9
			c-1.5,1.3-2.2,3.8-2.2,7.4V199H225.5z"/>
		<path d="M274.2,195.5c-1.8,1.5-3.5,2.6-5.1,3.2c-1.6,0.6-3.4,0.9-5.3,0.9c-3.1,0-5.5-0.8-7.2-2.3c-1.7-1.5-2.5-3.5-2.5-5.8
			c0-1.4,0.3-2.6,0.9-3.8c0.6-1.1,1.5-2.1,2.5-2.8c1-0.7,2.2-1.2,3.4-1.6c0.9-0.2,2.4-0.5,4.3-0.7c3.9-0.5,6.7-1,8.5-1.6
			c0-0.7,0-1.1,0-1.3c0-1.9-0.5-3.3-1.4-4.1c-1.2-1.1-3-1.6-5.5-1.6c-2.3,0-3.9,0.4-5,1.2c-1.1,0.8-1.9,2.2-2.4,4.2l-4.7-0.6
			c0.4-2,1.1-3.6,2.1-4.9c1-1.2,2.4-2.2,4.2-2.8s4-1,6.4-1c2.4,0,4.4,0.3,5.9,0.9c1.5,0.6,2.6,1.3,3.3,2.1c0.7,0.9,1.2,1.9,1.5,3.3
			c0.2,0.8,0.2,2.3,0.2,4.4v6.4c0,4.4,0.1,7.3,0.3,8.4c0.2,1.2,0.6,2.3,1.2,3.4h-5C274.7,198,274.4,196.8,274.2,195.5z M273.8,184.8
			c-1.7,0.7-4.3,1.3-7.8,1.8c-2,0.3-3.4,0.6-4.2,1c-0.8,0.4-1.4,0.9-1.9,1.6c-0.4,0.7-0.7,1.4-0.7,2.3c0,1.3,0.5,2.3,1.4,3.2
			c1,0.9,2.4,1.3,4.2,1.3c1.8,0,3.5-0.4,4.9-1.2c1.4-0.8,2.5-1.9,3.2-3.3c0.5-1.1,0.8-2.7,0.8-4.8V184.8z"/>
		<path d="M286,199v-39h4.8v39H286z"/>
		<path d="M317.5,189.9l4.9,0.6c-0.8,2.9-2.2,5.1-4.3,6.7c-2.1,1.6-4.8,2.4-8.1,2.4c-4.1,0-7.4-1.3-9.8-3.8
			c-2.4-2.5-3.6-6.1-3.6-10.7c0-4.8,1.2-8.4,3.7-11.1c2.4-2.6,5.6-3.9,9.5-3.9c3.8,0,6.9,1.3,9.3,3.9c2.4,2.6,3.6,6.2,3.6,10.9
			c0,0.3,0,0.7,0,1.3h-21.1c0.2,3.1,1.1,5.5,2.6,7.1c1.6,1.6,3.5,2.5,5.9,2.5c1.8,0,3.3-0.5,4.5-1.4
			C315.8,193.4,316.8,191.9,317.5,189.9z M301.8,182.1h15.8c-0.2-2.4-0.8-4.2-1.8-5.3c-1.5-1.8-3.5-2.8-5.9-2.8
			c-2.2,0-4,0.7-5.5,2.2C302.8,177.7,302,179.7,301.8,182.1z"/>
		<path d="M329.6,199v-24.5h-4.2v-3.7h4.2v-3c0-1.9,0.2-3.3,0.5-4.2c0.5-1.2,1.3-2.2,2.4-3c1.2-0.8,2.8-1.2,4.9-1.2
			c1.3,0,2.8,0.2,4.5,0.5l-0.7,4.2c-1-0.2-1.9-0.3-2.8-0.3c-1.5,0-2.5,0.3-3.1,0.9c-0.6,0.6-0.9,1.8-0.9,3.5v2.6h5.5v3.7h-5.5V199
			H329.6z"/>
		<path d="M343.8,199v-24.5h-4.2v-3.7h4.2v-3c0-1.9,0.2-3.3,0.5-4.2c0.5-1.2,1.3-2.2,2.4-3c1.2-0.8,2.8-1.2,4.9-1.2
			c1.3,0,2.8,0.2,4.5,0.5l-0.7,4.2c-1-0.2-1.9-0.3-2.8-0.3c-1.5,0-2.5,0.3-3.1,0.9c-0.6,0.6-0.9,1.8-0.9,3.5v2.6h5.5v3.7h-5.5V199
			H343.8z"/>
		<path d="M377.1,189.9l4.9,0.6c-0.8,2.9-2.2,5.1-4.3,6.7c-2.1,1.6-4.8,2.4-8.1,2.4c-4.1,0-7.4-1.3-9.8-3.8
			c-2.4-2.5-3.6-6.1-3.6-10.7c0-4.8,1.2-8.4,3.7-11.1c2.4-2.6,5.6-3.9,9.5-3.9c3.8,0,6.9,1.3,9.3,3.9c2.4,2.6,3.6,6.2,3.6,10.9
			c0,0.3,0,0.7,0,1.3h-21.1c0.2,3.1,1.1,5.5,2.6,7.1c1.6,1.6,3.5,2.5,5.9,2.5c1.8,0,3.3-0.5,4.5-1.4
			C375.4,193.4,376.4,191.9,377.1,189.9z M361.4,182.1h15.8c-0.2-2.4-0.8-4.2-1.8-5.3c-1.5-1.8-3.5-2.8-5.9-2.8
			c-2.2,0-4,0.7-5.5,2.2C362.4,177.7,361.5,179.7,361.4,182.1z"/>
		<path d="M406.5,188.6l4.7,0.6c-0.5,3.2-1.8,5.8-4,7.6c-2.1,1.8-4.7,2.8-7.8,2.8c-3.9,0-7-1.3-9.3-3.8c-2.3-2.5-3.5-6.1-3.5-10.9
			c0-3,0.5-5.7,1.5-8c1-2.3,2.5-4,4.6-5.1c2.1-1.1,4.3-1.7,6.7-1.7c3.1,0,5.6,0.8,7.5,2.3c2,1.6,3.2,3.8,3.8,6.6l-4.7,0.7
			c-0.4-1.9-1.2-3.3-2.4-4.3s-2.5-1.4-4.1-1.4c-2.4,0-4.4,0.9-5.9,2.6c-1.5,1.7-2.3,4.5-2.3,8.2c0,3.8,0.7,6.6,2.2,8.3
			c1.5,1.7,3.4,2.6,5.7,2.6c1.9,0,3.4-0.6,4.7-1.7C405.3,192.8,406.1,191,406.5,188.6z"/>
		<path d="M425.7,194.7l0.7,4.2c-1.3,0.3-2.6,0.4-3.6,0.4c-1.7,0-3.1-0.3-4-0.8c-1-0.5-1.6-1.3-2-2.2c-0.4-0.9-0.6-2.8-0.6-5.7
			v-16.3h-3.5v-3.7h3.5v-7l4.8-2.9v9.9h4.8v3.7h-4.8V191c0,1.4,0.1,2.2,0.3,2.6c0.2,0.4,0.4,0.7,0.8,0.9c0.4,0.2,0.9,0.3,1.6,0.3
			C424.2,194.9,424.9,194.8,425.7,194.7z"/>
		<path d="M428.5,190.5l4.7-0.7c0.3,1.9,1,3.4,2.2,4.4c1.2,1,2.9,1.5,5.1,1.5c2.2,0,3.8-0.4,4.9-1.3s1.6-1.9,1.6-3.2
			c0-1.1-0.5-1.9-1.4-2.6c-0.7-0.4-2.3-1-4.9-1.6c-3.5-0.9-5.9-1.7-7.3-2.3c-1.4-0.6-2.4-1.5-3.1-2.7c-0.7-1.1-1.1-2.4-1.1-3.8
			c0-1.3,0.3-2.4,0.9-3.5c0.6-1.1,1.4-2,2.4-2.7c0.7-0.5,1.8-1,3-1.4c1.3-0.4,2.7-0.6,4.1-0.6c2.2,0,4.2,0.3,5.8,1
			c1.7,0.6,2.9,1.5,3.7,2.6c0.8,1.1,1.3,2.5,1.7,4.4l-4.7,0.6c-0.2-1.5-0.8-2.6-1.8-3.4c-1-0.8-2.5-1.2-4.3-1.2
			c-2.2,0-3.8,0.4-4.7,1.1c-0.9,0.7-1.4,1.6-1.4,2.6c0,0.6,0.2,1.2,0.6,1.7c0.4,0.5,1,0.9,1.8,1.3c0.5,0.2,1.9,0.6,4.2,1.2
			c3.4,0.9,5.7,1.6,7.1,2.2s2.4,1.4,3.2,2.5c0.8,1.1,1.1,2.5,1.1,4.1c0,1.6-0.5,3.1-1.4,4.5c-0.9,1.4-2.3,2.5-4,3.3
			c-1.8,0.8-3.7,1.2-6,1.2c-3.7,0-6.5-0.8-8.4-2.3S429,193.5,428.5,190.5z"/>
	</g>
	<g>
		<path class="st1" d="M216.1,400.1c-2.6,0-5.3-0.3-8.1-0.9c-20.1-4.3-38.8-24.9-55.5-61.1c-40-86.8-63.4-102-63.7-102.1
			c-2.8-1.6-3.7-5.1-2.1-7.9c1.6-2.8,5.2-3.8,8-2.2c2.6,1.5,26.8,17.2,68.4,107.3c15.1,32.7,31,51.1,47.4,54.6
			c15.3,3.3,27.6-7.4,34.2-13.1c0.6-0.5,1.1-0.9,1.5-1.3c1.4-1.2,4.4-4.6,7.9-8.4c20.8-23.1,69.5-77.2,122-67.7
			c62,11.2,80.8,88.7,81.5,91.9c0.7,3.1-1.2,6.3-4.4,7c-3.1,0.7-6.3-1.2-7-4.4c-0.2-0.7-17.9-73.3-72.3-83.1
			c-46.2-8.3-91.8,42.4-111.3,64c-4.2,4.7-7,7.8-9.1,9.5c-0.4,0.4-0.9,0.8-1.4,1.2C246.2,388.7,233.1,400.1,216.1,400.1z"/>
	</g>
	<g>
		<path d="M114.1,367.5c-1.3,0-2.5-0.8-2.8-2.1c-0.4-1.6,0.5-3.2,2-3.6l307.3-84.7c1.6-0.4,3.2,0.5,3.6,2c0.4,1.6-0.5,3.2-2,3.6
			l-307.3,84.7C114.6,367.5,114.4,367.5,114.1,367.5z"/>
	</g>
	<circle class="st2" cx="341.4" cy="304.4" r="17.1"/>
</g>
</svg>
